<?xml version="1.0" encoding="utf-8"?>
<!-- Generator: Adobe Illustrator 25.1.0, SVG Export Plug-In . SVG Version: 6.00 Build 0)  -->
<svg version="1.1" id="레이어_1" xmlns="http://www.w3.org/2000/svg" xmlns:xlink="http://www.w3.org/1999/xlink" x="0px"
	 y="0px" viewBox="0 0 50 40" style="enable-background:new 0 0 50 40;" xml:space="preserve">
<style type="text/css">
	.st0{fill:#FFFFFF;}
</style>
<g>
	<path class="st0" d="M46.31,9.41H3.66C2.19,9.41,1,8.22,1,6.75V4.66C1,3.19,2.19,2,3.66,2h42.65c1.47,0,2.66,1.19,2.66,2.66v2.09
		C48.97,8.22,47.78,9.41,46.31,9.41z"/>
</g>
<g>
	<path class="st0" d="M46.31,24.21H3.66C2.19,24.21,1,23.01,1,21.54v-2.09c0-1.47,1.19-2.66,2.66-2.66h42.65
		c1.47,0,2.66,1.19,2.66,2.66v2.09C48.97,23.01,47.78,24.21,46.31,24.21z"/>
</g>
<g>
	<path class="st0" d="M46.31,39H3.66C2.19,39,1,37.81,1,36.34v-2.09c0-1.47,1.19-2.66,2.66-2.66h42.65c1.47,0,2.66,1.19,2.66,2.66
		v2.09C48.97,37.81,47.78,39,46.31,39z"/>
</g>
</svg>
